# xmcd
#
# Track frame offsets:
#	187
#	23665
#	42692
#	61487
#	81925
#	100947
#	120892
#	138242
#	161382
#	182402
#	200227
#	218175
#	238165
#	258150
#	277542
#
# Disc length: 3951 seconds
#
# Revision: 1
# Processed by: cddbd v1.5PL3 Copyright (c) Steve Scherf et al.
# Submitted via: CDex 1.50Beta5
#
DISCID=c90f6d0f
DTITLE=Lisa Keith - Walkin' In The Sun
DYEAR=1900
DGENRE=Blues
TTITLE0=Love Isn't Body...It's Soul
TTITLE1=Better Than You
TTITLE2=Love Is Alive And Well
TTITLE3=I'm In Love
TTITLE4=Days Like These
TTITLE5=A Love For All Seasons
TTITLE6=World Of Joy
TTITLE7=Sunshine Daydreamin'
TTITLE8=Closer
TTITLE9=Love Me Like You Do
TTITLE10=Free As You Wanna Be
TTITLE11=True To You
TTITLE12=Walkin' In The Sun
TTITLE13=Adonai
TTITLE14=Better Than You (Fonki Jam Edit)
EXTD=
EXTT0=
EXTT1=
EXTT2=
EXTT3=
EXTT4=
EXTT5=
EXTT6=
EXTT7=
EXTT8=
EXTT9=
EXTT10=
EXTT11=
EXTT12=
EXTT13=
EXTT14=
PLAYORDER=
